<?xml version="1.0" encoding="UTF-8"?>
<svg xmlns="http://www.w3.org/2000/svg" xmlns:xlink="http://www.w3.org/1999/xlink" width="18pt" height="18pt" viewBox="0 0 18 18" version="1.1">
<defs>
<linearGradient id="linear0" gradientUnits="userSpaceOnUse" x1="46" y1="11" x2="29" y2="52" gradientTransform="matrix(0.26025,0,0,0.26025,0,0)">
<stop offset="0" style="stop-color:rgb(16.470588%,67.058824%,93.333333%);stop-opacity:1;"/>
<stop offset="1" style="stop-color:rgb(13.333333%,61.960784%,85.098039%);stop-opacity:1;"/>
</linearGradient>
</defs>
<g id="surface1">
<path style=" stroke:none;fill-rule:nonzero;fill:url(#linear0);" d="M 18.007812 9.003906 C 18.007812 13.976562 13.976562 18.007812 9.003906 18.007812 C 4.03125 18.007812 0 13.976562 0 9.003906 C 0 4.03125 4.03125 0 9.003906 0 C 13.976562 0 18.007812 4.03125 18.007812 9.003906 Z M 18.007812 9.003906 "/>
<path style=" stroke:none;fill-rule:nonzero;fill:rgb(100%,100%,100%);fill-opacity:1;" d="M 12.441406 5.335938 C 12.441406 5.335938 13.375 4.972656 13.296875 5.855469 C 13.273438 6.21875 13.039062 7.496094 12.855469 8.875 L 12.230469 12.960938 C 12.230469 12.960938 12.179688 13.558594 11.710938 13.664062 C 11.242188 13.765625 10.539062 13.296875 10.410156 13.195312 C 10.304688 13.117188 8.457031 11.945312 7.808594 11.371094 C 7.625 11.214844 7.417969 10.90625 7.832031 10.539062 L 10.566406 7.9375 C 10.878906 7.625 11.191406 6.898438 9.890625 7.78125 L 6.246094 10.253906 C 6.246094 10.253906 5.828125 10.515625 5.050781 10.28125 L 3.355469 9.757812 C 3.355469 9.757812 2.734375 9.367188 3.800781 8.980469 C 6.402344 7.753906 9.601562 6.507812 12.441406 5.335938 Z M 12.441406 5.335938 "/>
</g>
</svg>
