<?xml version="1.0" encoding="UTF-8"?>
<svg xmlns="http://www.w3.org/2000/svg" xmlns:xlink="http://www.w3.org/1999/xlink" width="16pt" height="16pt" viewBox="0 0 16 16" version="1.1">
<defs>
<linearGradient id="linear0" gradientUnits="userSpaceOnUse" x1="46" y1="11" x2="29" y2="52" gradientTransform="matrix(0.231333,0,0,0.231333,0,0)">
<stop offset="0" style="stop-color:rgb(16.470588%,67.058824%,93.333333%);stop-opacity:1;"/>
<stop offset="1" style="stop-color:rgb(13.333333%,61.960784%,85.098039%);stop-opacity:1;"/>
</linearGradient>
</defs>
<g id="surface1">
<path style=" stroke:none;fill-rule:nonzero;fill:url(#linear0);" d="M 16.007812 8.003906 C 16.007812 12.425781 12.425781 16.007812 8.003906 16.007812 C 3.582031 16.007812 0 12.425781 0 8.003906 C 0 3.582031 3.582031 0 8.003906 0 C 12.425781 0 16.007812 3.582031 16.007812 8.003906 Z M 16.007812 8.003906 "/>
<path style=" stroke:none;fill-rule:nonzero;fill:rgb(100%,100%,100%);fill-opacity:1;" d="M 11.058594 4.742188 C 11.058594 4.742188 11.890625 4.417969 11.820312 5.203125 C 11.796875 5.527344 11.589844 6.664062 11.429688 7.886719 L 10.871094 11.519531 C 10.871094 11.519531 10.828125 12.050781 10.410156 12.144531 C 9.992188 12.238281 9.367188 11.820312 9.253906 11.730469 C 9.160156 11.660156 7.519531 10.617188 6.941406 10.109375 C 6.777344 9.96875 6.59375 9.691406 6.964844 9.367188 L 9.390625 7.054688 C 9.667969 6.777344 9.949219 6.128906 8.789062 6.917969 L 5.550781 9.113281 C 5.550781 9.113281 5.183594 9.347656 4.488281 9.136719 L 2.984375 8.675781 C 2.984375 8.675781 2.429688 8.328125 3.378906 7.980469 C 5.691406 6.894531 8.535156 5.785156 11.058594 4.742188 Z M 11.058594 4.742188 "/>
</g>
</svg>
